HIERARCHY
ROOT hip
{
  OFFSET 1.00442 88.4947 -14.9798
  CHANNELS 6 Xposition Yposition Zposition Zrotation Xrotation Yrotation
  JOINT abdomen
  {
    OFFSET 0 6.09653 0.699602
    CHANNELS 3 Zrotation Xrotation Yrotation
    JOINT chest
    {
      OFFSET 0 2.49857 -0.699602
      CHANNELS 3 Zrotation Xrotation Yrotation
      JOINT lCollar
      {
        OFFSET 1.49915 11.2936 -1.69903
        CHANNELS 3 Zrotation Xrotation Yrotation
        JOINT lShldr
        {
          OFFSET 4.89721 -0.299833 0.799545
          CHANNELS 3 Zrotation Xrotation Yrotation
          JOINT lForeArm
          {
            OFFSET 12.4216 -1.19922 0.931564
            CHANNELS 3 Zrotation Xrotation Yrotation
            JOINT lHand
            {
              OFFSET 9.86568 0.0998482 3.66582
              CHANNELS 3 Zrotation Xrotation Yrotation
              JOINT lThumb1
              {
                OFFSET 0.399772 -0.399773 1.19932
                CHANNELS 3 Zrotation Xrotation Yrotation
                JOINT lThumb2
                {
                  OFFSET 0.99813 0 1.47145
                  CHANNELS 3 Zrotation Xrotation Yrotation
                  End Site
                  {
                    OFFSET 0.97784 -0.27884 0.829828
                  }
                }
              }
              JOINT lIndex1
              {
                OFFSET 2.69846 0.399775 2.09881
                CHANNELS 3 Zrotation Xrotation Yrotation
                JOINT lIndex2
                {
                  OFFSET 1.33823 -0.200884 0.6843
                  CHANNELS 3 Zrotation Xrotation Yrotation
                  End Site
                  {
                    OFFSET 0.760567 0.00099574 0.415074
                  }
                }
              }
              JOINT lMid1
              {
                OFFSET 2.99829 0.499714 1.09937
                CHANNELS 3 Zrotation Xrotation Yrotation
                JOINT lMid2
                {
                  OFFSET 1.45827 -0.0999388 0.600149
                  CHANNELS 3 Zrotation Xrotation Yrotation
                  End Site
                  {
                    OFFSET 1.04031 -0.0999473 0.399282
                  }
                }
              }
              JOINT lRing1
              {
                OFFSET 3.39806 0.399773 0.299829
                CHANNELS 3 Zrotation Xrotation Yrotation
                JOINT lRing2
                {
                  OFFSET 1.29926 -0.199886 0.399772
                  CHANNELS 3 Zrotation Xrotation Yrotation
                  End Site
                  {
                    OFFSET 0.899489 -0.0999425 0.199886
                  }
                }
              }
              JOINT lPinky1
              {
                OFFSET 3.29812 0.0999421 -0.399772
                CHANNELS 3 Zrotation Xrotation Yrotation
                JOINT lPinky2
                {
                  OFFSET 0.899488 -0.0999427 0
                  CHANNELS 3 Zrotation Xrotation Yrotation
                  End Site
                  {
                    OFFSET 0.999427 -0.0999418 0
                  }
                }
              }
            }
          }
        }
      }
      JOINT rCollar
      {
        OFFSET -1.49915 11.2936 -1.69903
        CHANNELS 3 Zrotation Xrotation Yrotation
        JOINT rShldr
        {
          OFFSET -4.89721 -0.299829 0.799545
          CHANNELS 3 Zrotation Xrotation Yrotation
          JOINT rForeArm
          {
            OFFSET -12.4216 -1.19922 0.931564
            CHANNELS 3 Zrotation Xrotation Yrotation
            JOINT rHand
            {
              OFFSET -9.86568 0.0998477 3.66582
              CHANNELS 3 Zrotation Xrotation Yrotation
              JOINT rThumb1
              {
                OFFSET -0.399773 -0.39977 1.19932
                CHANNELS 3 Zrotation Xrotation Yrotation
                JOINT rThumb2
                {
                  OFFSET -0.998132 0 1.47145
                  CHANNELS 3 Zrotation Xrotation Yrotation
                  End Site
                  {
                    OFFSET -0.977841 -0.278837 0.829828
                  }
                }
              }
              JOINT rPinky1
              {
                OFFSET -3.29812 0.0999423 -0.399772
                CHANNELS 3 Zrotation Xrotation Yrotation
                JOINT rPinky2
                {
                  OFFSET -0.899492 -0.0999405 0
                  CHANNELS 3 Zrotation Xrotation Yrotation
                  End Site
                  {
                    OFFSET -0.999429 -0.0999421 0
                  }
                }
              }
              JOINT rMid1
              {
                OFFSET -2.99829 0.499717 1.09937
                CHANNELS 3 Zrotation Xrotation Yrotation
                JOINT rMid2
                {
                  OFFSET -1.45827 -0.0999391 0.600149
                  CHANNELS 3 Zrotation Xrotation Yrotation
                  End Site
                  {
                    OFFSET -1.0403 -0.0999474 0.399282
                  }
                }
              }
              JOINT rIndex1
              {
                OFFSET -2.69847 0.399775 2.09881
                CHANNELS 3 Zrotation Xrotation Yrotation
                JOINT rIndex2
                {
                  OFFSET -1.33823 -0.200883 0.6843
                  CHANNELS 3 Zrotation Xrotation Yrotation
                  End Site
                  {
                    OFFSET -0.760569 0.00099747 0.415074
                  }
                }
              }
              JOINT rRing1
              {
                OFFSET -3.39807 0.399775 0.299829
                CHANNELS 3 Zrotation Xrotation Yrotation
                JOINT rRing2
                {
                  OFFSET -1.29926 -0.199888 0.399772
                  CHANNELS 3 Zrotation Xrotation Yrotation
                  End Site
                  {
                    OFFSET -0.899487 -0.0999402 0.199886
                  }
                }
              }
            }
          }
        }
      }
      JOINT neck
      {
        OFFSET 0 12.4929 -0.499715
        CHANNELS 3 Zrotation Xrotation Yrotation
        JOINT head
        {
          OFFSET 0 3.59795 0.299829
          CHANNELS 3 Zrotation Xrotation Yrotation
          JOINT leftEye
          {
            OFFSET 1.19932 3.69789 3.19818
            CHANNELS 3 Zrotation Xrotation Yrotation
            End Site
            {
              OFFSET 0 0 0
            }
          }
          JOINT rightEye
          {
            OFFSET -1.19932 3.69789 3.19818
            CHANNELS 3 Zrotation Xrotation Yrotation
            End Site
            {
              OFFSET 0 0 0
            }
          }
        }
      }
    }
  }
  JOINT rButtock
  {
    OFFSET -4.19761 -0.599656 -0.299829
    CHANNELS 3 Zrotation Xrotation Yrotation
    JOINT rThigh
    {
      OFFSET 0 -1.49915 0
      CHANNELS 3 Zrotation Xrotation Yrotation
      JOINT rShin
      {
        OFFSET 0.699602 -17.6899 -1.09938
        CHANNELS 3 Zrotation Xrotation Yrotation
        JOINT rFoot
        {
          OFFSET -0.699602 -18.0897 -0.699602
          CHANNELS 3 Zrotation Xrotation Yrotation
          End Site
          {
            OFFSET 0 -2.09881 5.59681
          }
        }
      }
    }
  }
  JOINT lButtock
  {
    OFFSET 4.19761 -0.599656 -0.299829
    CHANNELS 3 Zrotation Xrotation Yrotation
    JOINT lThigh
    {
      OFFSET 0 -1.49914 0
      CHANNELS 3 Zrotation Xrotation Yrotation
      JOINT lShin
      {
        OFFSET -0.699602 -17.6899 -1.09937
        CHANNELS 3 Zrotation Xrotation Yrotation
        JOINT lFoot
        {
          OFFSET 0.699602 -18.0897 -0.699602
          CHANNELS 3 Zrotation Xrotation Yrotation
          End Site
          {
            OFFSET 0 -2.0988 5.59681
          }
        }
      }
    }
  }
}
MOTION
Frames:	4
Frame Time:	0.0333333
0.960465 88.4717 -16.3682 2.81229 -12.9393 0.193136 -0.00975517 -0.00975351 -0.00975351 0.541523 14.3262 0.51326 -2.73728 1.0384 -18.2479 -70.2298 22.8883 2.32461 50.1784 4.50884 -67.2996 -0.0152364 -0.113856 10.532 -1.87818 1.06148 -28.0917 9.40787 -7.94586 0.599069 -1.90214 1.09713 -28.0878 -8.62278 -0.0233157 1.79819 -1.91292 1.08254 -28.0857 0.181555 0.424301 -1.45108 -1.90892 1.07501 -28.0899 -2.42835 -0.502432 -4.4324 -1.89072 1.08174 -28.0686 -0.629806 -0.00995832 0.0010087 6.09591 0.89357 10.9985 65.3736 9.22266 -10.6501 -22.4888 1.39864 68.6188 2.87161 1.16237 2.60373 1.8765 1.0053 28.0257 -9.40282 -7.91099 -0.69994 1.83969 1.02683 28.0275 0.629434 -0.00953168 -0.000952476 1.84571 1.02832 28.013 -0.243675 0.394432 1.44876 1.84098 1.0419 28.023 8.61171 -0.00190224 -1.79828 1.84463 1.02332 28.0095 2.42704 -0.497593 4.4329 -0.708935 -14.3253 -0.687065 8.1776 1.32161 44.8254 0 0 0 0 0 0 -0.00975517 -0.00969887 -0.00983547 -3.14773 -68.3003 5.97622 11.4596 74.6851 -7.67385 10.7622 5.26223 -1.11918 -0.00975517 -0.00983547 -0.00969887 -8.54535 -66.2701 -8.4032 -10.2439 71.5123 4.91783 -4.37903 7.38187 0.737169 
0.960377 88.4751 -16.3682 2.80252 -12.9295 0.19313 -0.00975517 -0.00975351 -0.00975351 0.541518 14.3262 0.503495 -2.69289 1.02893 -18.2836 -70.2931 22.7324 2.38906 47.8613 4.37852 -67.1662 0.907451 -0.36367 11.1377 -1.87818 1.06148 -28.0917 9.40787 -7.94586 0.599069 -1.90214 1.09713 -28.0878 -8.62278 -0.0233157 1.79819 -1.91292 1.08254 -28.0857 0.181555 0.424301 -1.45108 -1.90892 1.07501 -28.0899 -2.42835 -0.502432 -4.4324 -1.89072 1.08174 -28.0686 -0.629806 -0.00995832 0.0010087 6.03803 0.884555 11.0191 65.4222 9.16632 -10.5549 -22.7004 1.46259 68.5096 3.20307 1.31387 3.06111 1.8765 1.0053 28.0257 -9.40282 -7.91099 -0.69994 1.83969 1.02683 28.0275 0.629434 -0.00953168 -0.000952476 1.84571 1.02832 28.013 -0.243675 0.394432 1.44876 1.84099 1.04191 28.023 8.61171 -0.00190224 -1.79828 1.84463 1.02332 28.0095 2.42704 -0.497593 4.4329 -0.707746 -14.335 -0.677197 8.29278 1.78393 45.6844 0 0 0 0 0 0 -0.00975517 -0.00969887 -0.00983547 -3.11093 -68.3104 6.02336 11.4469 74.6659 -7.67047 10.7723 5.26214 -1.12004 -0.00975517 -0.00983547 -0.00969887 -8.53474 -66.2799 -8.41221 -10.2432 71.5125 4.91743 -4.37899 7.38183 0.737172 
0.960286 88.4764 -16.3677 2.80253 -12.9198 0.19313 -0.00975517 -0.00975351 -0.00975351 0.521989 14.3165 0.503495 -2.63955 1.01451 -18.2494 -70.3682 22.7022 2.41908 46.4495 4.31728 -67.0724 1.35412 -0.479749 11.7862 -1.87818 1.06148 -28.0917 9.40787 -7.94586 0.599069 -1.90214 1.09713 -28.0878 -8.62278 -0.0233157 1.79819 -1.91292 1.08254 -28.0857 0.181555 0.424301 -1.45108 -1.90892 1.07501 -28.0899 -2.42835 -0.502432 -4.4324 -1.89072 1.08174 -28.0686 -0.629806 -0.00995832 0.0010087 5.99828 0.87635 11.0038 65.4686 9.16391 -10.4896 -23.242 1.50287 68.4639 3.78658 1.58268 3.75186 1.8765 1.0053 28.0257 -9.40282 -7.91099 -0.69994 1.83969 1.02683 28.0275 0.629434 -0.00953168 -0.000952476 1.84571 1.02832 28.013 -0.243675 0.394432 1.44876 1.84099 1.04192 28.023 8.61171 -0.00190224 -1.79828 1.84463 1.02332 28.0095 2.42704 -0.497593 4.4329 -0.687707 -14.3253 -0.674476 8.39705 2.12168 46.404 0 0 0 0 0 0 -0.00975517 -0.00969887 -0.00983547 -3.12098 -68.3201 6.02309 11.4469 74.666 -7.67045 10.7723 5.26206 -1.12003 -0.00975517 -0.00983547 -0.00969887 -8.55333 -66.2898 -8.43069 -10.2402 71.5028 4.91479 -4.37903 7.38172 0.737171 
0.961523 88.479 -16.3662 2.79276 -12.8807 0.183364 -0.00975517 -0.00975351 -0.00975351 0.502475 14.2871 0.513251 -2.59346 1.00298 -18.2432 -70.4395 22.6974 2.43798 45.72 4.31472 -67.0005 1.27971 -0.458829 12.4987 -1.87818 1.06148 -28.0917 9.40787 -7.94586 0.599069 -1.90214 1.09713 -28.0878 -8.62278 -0.0233157 1.79819 -1.91292 1.08254 -28.0857 0.181555 0.424301 -1.45108 -1.90892 1.07501 -28.0899 -2.42835 -0.502432 -4.4324 -1.89072 1.08175 -28.0686 -0.629806 -0.00995832 0.0010087 6.00441 0.877964 11.0113 65.4666 9.17967 -10.4132 -23.8443 1.53575 68.4371 4.51552 1.91764 4.38933 1.8765 1.0053 28.0257 -9.40282 -7.91099 -0.69994 1.83969 1.02683 28.0275 0.629434 -0.00953168 -0.000952476 1.84571 1.02832 28.013 -0.243675 0.394432 1.44876 1.841 1.04193 28.023 8.61171 -0.00190224 -1.79828 1.84463 1.02332 28.0095 2.42704 -0.497593 4.4329 -0.667617 -14.296 -0.671519 8.39913 2.45734 47.0209 0 0 0 0 0 0 -0.00975517 -0.00969887 -0.00983547 -3.01835 -68.3398 6.13519 11.4298 74.6464 -7.69103 10.7919 5.26403 -1.12197 -0.00975517 -0.00983547 -0.00969887 -8.52412 -66.319 -8.41159 -10.2396 71.5029 4.91416 -4.37899 7.38165 0.73716 
